<svg xmlns="http://www.w3.org/2000/svg" xmlns:svg="http://www.w3.org/2000/svg" xmlns:xlink="http://www.w3.org/1999/xlink" style="enable-background:new -185 387 240 20" id="svg5327" x="0" y="0" version="1.1" viewBox="-185 387 240 20" xml:space="preserve"><style type="text/css">.st0,.st2{fill:#5a77a2}.st2{fill-opacity:0}.st3{font-family:&apos;ArialMT&apos;}.st4{font-size:16.7411px}.st5{font-size:16.8098px}.st6{font-size:6.4606px}.st7,.st8{fill:#41007e}.st8{fill-opacity:0}.st10,.st11{fill:#022bb1}.st11{fill-opacity:0}</style><g id="layer1" transform="translate(-3200,-992.36218)"><path id="path6002-6-5-5" d="M3030.5,1388.4l-5.5-5.5 l-5.5,5.5h4.5v7h2v-7H3030.5z" class="st0"/><path id="rect4998" d="M3104,1383.4c-1.7,0-3.1,0.6-3.9,1.6c-0.8,1-1.1,2.2-1.1,3.4 v6h2v-6c0-0.8,0.2-1.6,0.7-2.1c0.4-0.5,1.1-0.9,2.3-0.9s1.9,0.4,2.3,0.9c0.4,0.5,0.7,1.3,0.7,2.1v2h-4.5l5.5,5.5l5.5-5.5h-4.5v-2 c0-1.2-0.3-2.4-1.1-3.4C3107.1,1384,3105.7,1383.4,3104,1383.4z" class="st0"/><path id="path4705" d="M3081.5,1383.4l3,3l-3.5,3.5 v5.4h2v-4.6l2.9-3l3.1,3.1v-7.5L3081.5,1383.4L3081.5,1383.4z" class="st0"/><path id="path4878" d="M3066,1382.9v4.5h-5l-1,1v6 h2v-5h4v4.5l5.5-5.5L3066,1382.9z" class="st0"/><path id="path4886" d="M3041.4,1383.4l-1.4,1v8h2v-5.6l4.6,4.5l-3.1,3.1h7.5v-7.5 l-3,3L3041.4,1383.4L3041.4,1383.4z" class="st0"/><path id="path4941" d="M3161,1383.4v7.5l3.1-3.1 l2.9,3v4.6h2v-5.4l-3.5-3.5l3-3L3161,1383.4L3161,1383.4z" class="st0"/><path id="path4945" d="M3144,1382.9v4.5h5l1,1v6 h-2v-5h-4v4.5l-5.5-5.5L3144,1382.9z" class="st0"/><path id="path4947" d="M3128.6,1383.4l-6.5,6.5l-3-3v7.5h7.5l-3.1-3.1l4.6-4.5v5.6h2 v-8L3128.6,1383.4L3128.6,1383.4z" class="st0"/><path id="path5026" d="M3205,1382.4 c-1.5,0-3.1,0.6-4.2,1.7c-2.3,2.3-2.3,6.2,0,8.5l1.4-1.4c-1.6-1.6-1.6-4.1,0-5.6c1.6-1.6,4.1-1.6,5.6,0c1.6,1.6,1.6,4.1,0,5.6 c-0.8,0.8-1.8,1.2-2.8,1.2h-1v4h2v-2.1c1.2-0.2,2.4-0.8,3.2-1.7c2.3-2.3,2.3-6.2,0-8.5C3208.1,1382.9,3206.5,1382.4,3205,1382.4z" class="st0"/><g id="a-18" transform="translate(3360.5,-23.000003)"><rect id="rect6083" width="18" height="18" x="-185" y="1403.4" class="st2"/><text class="st0 st3 st4" transform="matrix(1 0 0 1 -181.2793 1418.3622)">A</text></g><g id="b-18" transform="translate(3401,-23.00002)"><rect id="rect6604" width="18" height="18" x="-185" y="1403.4" class="st2"/><text class="st0 st3 st5" transform="matrix(1 0 0 1 -181.5103 1418.3622)">B</text></g><rect id="rect3033" width="18" height="18" x="3236" y="1380.4" class="st2"/><text class="st0 st3 st5" transform="matrix(1 0 0 1 3237.9858 1395.3622)">V</text><text class="st0 st3 st6" transform="matrix(0.9066 0 0 1 3247.8315 1395.2704)">ia</text></g><g id="layer1_1_" transform="translate(-3200,-992.36218)"><path id="path6002-6-5-5_1_" d="M3030.5,1444.4 l-5.5-5.5l-5.5,5.5h4.5v7h2v-7H3030.5z" class="st7"/><path id="rect4998_1_" d="M3104,1439.4c-1.7,0-3.1,0.6-3.9,1.6 c-0.8,1-1.1,2.2-1.1,3.4v6h2v-6c0-0.8,0.2-1.6,0.7-2.1c0.4-0.5,1.1-0.9,2.3-0.9s1.9,0.4,2.3,0.9c0.4,0.5,0.7,1.3,0.7,2.1v2h-4.5 l5.5,5.5l5.5-5.5h-4.5v-2c0-1.2-0.3-2.4-1.1-3.4C3107.1,1440,3105.7,1439.4,3104,1439.4z" class="st7"/><path id="path4705_1_" d="M3081.5,1439.4l3,3 l-3.5,3.5v5.4h2v-4.6l2.9-3l3.1,3.1v-7.5L3081.5,1439.4L3081.5,1439.4z" class="st7"/><path id="path4878_1_" d="M3066,1438.9v4.5h-5 l-1,1v6h2v-5h4v4.5l5.5-5.5L3066,1438.9z" class="st7"/><path id="path4886_1_" d="M3041.4,1439.4l-1.4,1v8h2v-5.6l4.6,4.5l-3.1,3.1h7.5v-7.5 l-3,3L3041.4,1439.4L3041.4,1439.4z" class="st7"/><path id="path4941_1_" d="M3161,1439.4v7.5l3.1-3.1 l2.9,3v4.6h2v-5.4l-3.5-3.5l3-3L3161,1439.4L3161,1439.4z" class="st7"/><path id="path4945_1_" d="M3144,1438.9v4.5h5l1,1 v6h-2v-5h-4v4.5l-5.5-5.5L3144,1438.9z" class="st7"/><path id="path4947_1_" d="M3128.6,1439.4l-6.5,6.5l-3-3v7.5h7.5l-3.1-3.1l4.6-4.5 v5.6h2v-8L3128.6,1439.4L3128.6,1439.4z" class="st7"/><path id="path5026_1_" d="M3205,1438.4 c-1.5,0-3.1,0.6-4.2,1.7c-2.3,2.3-2.3,6.2,0,8.5l1.4-1.4c-1.6-1.6-1.6-4.1,0-5.6s4.1-1.6,5.6,0c1.6,1.6,1.6,4.1,0,5.6 c-0.8,0.8-1.8,1.2-2.8,1.2h-1v4h2v-2.1c1.2-0.2,2.4-0.8,3.2-1.7c2.3-2.3,2.3-6.2,0-8.5C3208.1,1438.9,3206.5,1438.4,3205,1438.4z" class="st7"/><g id="a-18_1_" transform="translate(3360.5,-23.000003)"><rect id="rect6083_1_" width="18" height="18" x="-185" y="1459.4" class="st8"/><text class="st7 st3 st4" transform="matrix(1 0 0 1 -181.2793 1474.3622)">A</text></g><g id="b-18_1_" transform="translate(3401,-23.00002)"><rect id="rect6604_1_" width="18" height="18" x="-185" y="1459.4" class="st8"/><text class="st7 st3 st5" transform="matrix(1 0 0 1 -181.5103 1474.3622)">B</text></g><rect id="rect3033_1_" width="18" height="18" x="3236" y="1436.4" class="st8"/><text class="st7 st3 st5" transform="matrix(1 0 0 1 3237.9858 1451.3622)">V</text><text class="st7 st3 st6" transform="matrix(0.9066 0 0 1 3247.8315 1451.2704)">ia</text></g><g id="layer1_2_" transform="translate(-3200,-992.36218)"><path id="path6002-6-5-5_2_" d="M3030.5,1510.4 l-5.5-5.5l-5.5,5.5h4.5v7h2v-7H3030.5z" class="st10"/><path id="rect4998_2_" d="M3104,1505.4c-1.7,0-3.1,0.6-3.9,1.6 c-0.8,1-1.1,2.2-1.1,3.4v6h2v-6c0-0.8,0.2-1.6,0.7-2.1c0.4-0.5,1.1-0.9,2.3-0.9s1.9,0.4,2.3,0.9c0.4,0.5,0.7,1.3,0.7,2.1v2h-4.5 l5.5,5.5l5.5-5.5h-4.5v-2c0-1.2-0.3-2.4-1.1-3.4C3107.1,1506,3105.7,1505.4,3104,1505.4z" class="st10"/><path id="path4705_2_" d="M3081.5,1505.4l3,3 l-3.5,3.5v5.4h2v-4.6l2.9-3l3.1,3.1v-7.5L3081.5,1505.4L3081.5,1505.4z" class="st10"/><path id="path4878_2_" d="M3066,1504.9v4.5h-5 l-1,1v6h2v-5h4v4.5l5.5-5.5L3066,1504.9z" class="st10"/><path id="path4886_2_" d="M3041.4,1505.4l-1.4,1v8h2v-5.6l4.6,4.5l-3.1,3.1h7.5 v-7.5l-3,3L3041.4,1505.4L3041.4,1505.4z" class="st10"/><path id="path4941_2_" d="M3161,1505.4v7.5 l3.1-3.1l2.9,3v4.6h2v-5.4l-3.5-3.5l3-3L3161,1505.4L3161,1505.4z" class="st10"/><path id="path4945_2_" d="M3144,1504.9v4.5h5l1,1 v6h-2v-5h-4v4.5l-5.5-5.5L3144,1504.9z" class="st10"/><path id="path4947_2_" d="M3128.6,1505.4l-6.5,6.5l-3-3v7.5h7.5l-3.1-3.1l4.6-4.5 v5.6h2v-8L3128.6,1505.4L3128.6,1505.4z" class="st10"/><path id="path5026_2_" d="M3205,1504.4 c-1.5,0-3.1,0.6-4.2,1.7c-2.3,2.3-2.3,6.2,0,8.5l1.4-1.4c-1.6-1.6-1.6-4.1,0-5.6s4.1-1.6,5.6,0c1.6,1.6,1.6,4.1,0,5.6 c-0.8,0.8-1.8,1.2-2.8,1.2h-1v4h2v-2.1c1.2-0.2,2.4-0.8,3.2-1.7c2.3-2.3,2.3-6.2,0-8.5C3208.1,1504.9,3206.5,1504.4,3205,1504.4z" class="st10"/><g id="a-18_2_" transform="translate(3360.5,-23.000003)"><rect id="rect6083_4_" width="18" height="18" x="-185" y="1525.4" class="st11"/><text class="st10 st3 st4" transform="matrix(1 0 0 1 -181.2793 1540.3622)">A</text></g><g id="b-18_2_" transform="translate(3401,-23.00002)"><rect id="rect6604_4_" width="18" height="18" x="-185" y="1525.4" class="st11"/><text class="st10 st3 st5" transform="matrix(1 0 0 1 -181.5103 1540.3622)">B</text></g><rect id="rect3033_4_" width="18" height="18" x="3236" y="1502.4" class="st11"/><text class="st10 st3 st5" transform="matrix(1 0 0 1 3237.9858 1517.3622)">V</text><text class="st10 st3 st6" transform="matrix(0.9066 0 0 1 3247.8315 1517.2704)">ia</text></g><rect width="68" height="68" x="-354" y="181" class="st7"/><rect width="68" height="68" x="-354" y="273" class="st10"/><rect width="68" height="68" x="-380" y="373" class="st0"/></svg>